<mxfile host="app.diagrams.net" agent="Mozilla/5.0 (Windows NT 10.0; Win64; x64) AppleWebKit/537.36 (KHTML, like Gecko) Chrome/128.0.0.0 Safari/537.36" version="24.7.8" pages="2">
  <diagram name="DIAGRAMA DE SECUENCIA" id="qzNZczKpjCkVQlE8zpxm">
    <mxGraphModel dx="978" dy="511" grid="1" gridSize="10" guides="1" tooltips="1" connect="1" arrows="1" fold="1" page="1" pageScale="1" pageWidth="827" pageHeight="1169" math="0" shadow="0">
      <root>
        <mxCell id="0" />
        <mxCell id="1" parent="0" />
        <mxCell id="EzJwgJsFdN6tnA4pP23m-1" value="PROYECTOS" style="shape=umlLifeline;perimeter=lifelinePerimeter;whiteSpace=wrap;html=1;container=1;dropTarget=0;collapsible=0;recursiveResize=0;outlineConnect=0;portConstraint=eastwest;newEdgeStyle={&quot;curved&quot;:0,&quot;rounded&quot;:0};" vertex="1" parent="1">
          <mxGeometry x="380" y="10" width="100" height="300" as="geometry" />
        </mxCell>
        <mxCell id="EzJwgJsFdN6tnA4pP23m-4" value="" style="html=1;points=[[0,0,0,0,5],[0,1,0,0,-5],[1,0,0,0,5],[1,1,0,0,-5]];perimeter=orthogonalPerimeter;outlineConnect=0;targetShapes=umlLifeline;portConstraint=eastwest;newEdgeStyle={&quot;curved&quot;:0,&quot;rounded&quot;:0};" vertex="1" parent="EzJwgJsFdN6tnA4pP23m-1">
          <mxGeometry x="45" y="60" width="10" height="220" as="geometry" />
        </mxCell>
        <mxCell id="EzJwgJsFdN6tnA4pP23m-3" value="&lt;span style=&quot;text-wrap: nowrap;&quot;&gt;MIEMBROS DEL EQUIPO&lt;/span&gt;" style="shape=umlLifeline;perimeter=lifelinePerimeter;whiteSpace=wrap;html=1;container=1;dropTarget=0;collapsible=0;recursiveResize=0;outlineConnect=0;portConstraint=eastwest;newEdgeStyle={&quot;curved&quot;:0,&quot;rounded&quot;:0};" vertex="1" parent="1">
          <mxGeometry x="577" y="10" width="110" height="300" as="geometry" />
        </mxCell>
        <mxCell id="EzJwgJsFdN6tnA4pP23m-2" value="" style="html=1;points=[[0,0,0,0,5],[0,1,0,0,-5],[1,0,0,0,5],[1,1,0,0,-5]];perimeter=orthogonalPerimeter;outlineConnect=0;targetShapes=umlLifeline;portConstraint=eastwest;newEdgeStyle={&quot;curved&quot;:0,&quot;rounded&quot;:0};" vertex="1" parent="EzJwgJsFdN6tnA4pP23m-3">
          <mxGeometry x="50" y="102.5" width="10" height="75" as="geometry" />
        </mxCell>
        <mxCell id="EzJwgJsFdN6tnA4pP23m-5" value="&lt;span style=&quot;text-wrap: nowrap;&quot;&gt;&lt;i&gt;PROJECT ADMIN&lt;/i&gt;&lt;/span&gt;" style="shape=umlLifeline;perimeter=lifelinePerimeter;whiteSpace=wrap;html=1;container=1;dropTarget=0;collapsible=0;recursiveResize=0;outlineConnect=0;portConstraint=eastwest;newEdgeStyle={&quot;curved&quot;:0,&quot;rounded&quot;:0};" vertex="1" parent="1">
          <mxGeometry x="220" y="10" width="110" height="300" as="geometry" />
        </mxCell>
        <mxCell id="EzJwgJsFdN6tnA4pP23m-6" value="" style="html=1;points=[[0,0,0,0,5],[0,1,0,0,-5],[1,0,0,0,5],[1,1,0,0,-5]];perimeter=orthogonalPerimeter;outlineConnect=0;targetShapes=umlLifeline;portConstraint=eastwest;newEdgeStyle={&quot;curved&quot;:0,&quot;rounded&quot;:0};" vertex="1" parent="EzJwgJsFdN6tnA4pP23m-5">
          <mxGeometry x="50" y="60" width="10" height="220" as="geometry" />
        </mxCell>
        <mxCell id="EzJwgJsFdN6tnA4pP23m-7" value="Crear proyecto" style="html=1;verticalAlign=bottom;startArrow=oval;startFill=1;endArrow=block;startSize=8;curved=0;rounded=0;" edge="1" parent="1" target="EzJwgJsFdN6tnA4pP23m-4" source="EzJwgJsFdN6tnA4pP23m-6">
          <mxGeometry x="-0.0345" width="60" relative="1" as="geometry">
            <mxPoint x="280" y="110" as="sourcePoint" />
            <mxPoint x="579.5" y="110" as="targetPoint" />
            <mxPoint as="offset" />
            <Array as="points">
              <mxPoint x="400" y="90" />
            </Array>
          </mxGeometry>
        </mxCell>
        <mxCell id="EzJwgJsFdN6tnA4pP23m-8" value="&lt;span style=&quot;font-size: 12px; text-align: left; background-color: rgb(251, 251, 251);&quot;&gt;Proyecto&lt;/span&gt;" style="html=1;verticalAlign=bottom;endArrow=block;curved=0;rounded=0;dashed=1;entryX=0.333;entryY=0.623;entryDx=0;entryDy=0;entryPerimeter=0;" edge="1" parent="1">
          <mxGeometry x="0.0019" relative="1" as="geometry">
            <mxPoint x="426.17" y="250" as="sourcePoint" />
            <mxPoint x="270.00000000000006" y="250" as="targetPoint" />
            <mxPoint as="offset" />
          </mxGeometry>
        </mxCell>
        <mxCell id="EzJwgJsFdN6tnA4pP23m-12" value="&lt;span style=&quot;font-size: 12px; text-align: left; background-color: rgb(251, 251, 251);&quot;&gt;agregarMiembroEquipo&lt;/span&gt;" style="html=1;verticalAlign=bottom;startArrow=oval;startFill=1;endArrow=block;startSize=8;curved=0;rounded=0;" edge="1" parent="1" target="EzJwgJsFdN6tnA4pP23m-2">
          <mxGeometry x="-0.0345" width="60" relative="1" as="geometry">
            <mxPoint x="430" y="130" as="sourcePoint" />
            <mxPoint x="575" y="130" as="targetPoint" />
            <mxPoint as="offset" />
          </mxGeometry>
        </mxCell>
        <mxCell id="EzJwgJsFdN6tnA4pP23m-14" value="&lt;span style=&quot;font-size: 12px; text-align: left; background-color: rgb(251, 251, 251);&quot;&gt;Miembro del Equipo&lt;/span&gt;" style="html=1;verticalAlign=bottom;endArrow=block;curved=0;rounded=0;dashed=1;entryX=0.333;entryY=0.623;entryDx=0;entryDy=0;entryPerimeter=0;" edge="1" parent="1">
          <mxGeometry x="0.0019" relative="1" as="geometry">
            <mxPoint x="620" y="170.00000000000003" as="sourcePoint" />
            <mxPoint x="430" y="170.00000000000003" as="targetPoint" />
            <mxPoint as="offset" />
          </mxGeometry>
        </mxCell>
        <mxCell id="EzJwgJsFdN6tnA4pP23m-15" value="&lt;div style=&quot;text-align: left;&quot;&gt;&lt;span style=&quot;font-size: 12px; background-color: rgb(251, 251, 251);&quot;&gt;notificarAsignacion&lt;/span&gt;&lt;br&gt;&lt;/div&gt;" style="html=1;verticalAlign=bottom;startArrow=oval;startFill=1;endArrow=block;startSize=8;curved=0;rounded=0;" edge="1" parent="1">
          <mxGeometry x="-0.0345" width="60" relative="1" as="geometry">
            <mxPoint x="430" y="210" as="sourcePoint" />
            <mxPoint x="784.5000000000002" y="210" as="targetPoint" />
            <mxPoint as="offset" />
          </mxGeometry>
        </mxCell>
        <mxCell id="EzJwgJsFdN6tnA4pP23m-16" value="&lt;span style=&quot;text-wrap: nowrap;&quot;&gt;NOTIFICACIONES&amp;nbsp;&lt;/span&gt;" style="shape=umlLifeline;perimeter=lifelinePerimeter;whiteSpace=wrap;html=1;container=1;dropTarget=0;collapsible=0;recursiveResize=0;outlineConnect=0;portConstraint=eastwest;newEdgeStyle={&quot;curved&quot;:0,&quot;rounded&quot;:0};" vertex="1" parent="1">
          <mxGeometry x="740" y="10" width="110" height="300" as="geometry" />
        </mxCell>
        <mxCell id="EzJwgJsFdN6tnA4pP23m-17" value="" style="html=1;points=[[0,0,0,0,5],[0,1,0,0,-5],[1,0,0,0,5],[1,1,0,0,-5]];perimeter=orthogonalPerimeter;outlineConnect=0;targetShapes=umlLifeline;portConstraint=eastwest;newEdgeStyle={&quot;curved&quot;:0,&quot;rounded&quot;:0};" vertex="1" parent="EzJwgJsFdN6tnA4pP23m-16">
          <mxGeometry x="50" y="177.5" width="10" height="62.5" as="geometry" />
        </mxCell>
        <mxCell id="EzJwgJsFdN6tnA4pP23m-20" value="" style="html=1;points=[[0,0,0,0,5],[0,1,0,0,-5],[1,0,0,0,5],[1,1,0,0,-5]];perimeter=orthogonalPerimeter;outlineConnect=0;targetShapes=umlLifeline;portConstraint=eastwest;newEdgeStyle={&quot;curved&quot;:0,&quot;rounded&quot;:0};" vertex="1" parent="EzJwgJsFdN6tnA4pP23m-16">
          <mxGeometry x="60" y="200" width="10" height="30" as="geometry" />
        </mxCell>
        <mxCell id="EzJwgJsFdN6tnA4pP23m-22" value="" style="edgeStyle=orthogonalEdgeStyle;rounded=0;orthogonalLoop=1;jettySize=auto;html=1;curved=0;entryX=1;entryY=1;entryDx=0;entryDy=-5;entryPerimeter=0;" edge="1" parent="1" target="EzJwgJsFdN6tnA4pP23m-20">
          <mxGeometry relative="1" as="geometry">
            <mxPoint x="810" y="220" as="sourcePoint" />
            <mxPoint x="890" y="220" as="targetPoint" />
            <Array as="points">
              <mxPoint x="870" y="220" />
              <mxPoint x="870" y="235" />
            </Array>
          </mxGeometry>
        </mxCell>
        <mxCell id="EzJwgJsFdN6tnA4pP23m-23" value="enviarNotificacion" style="text;html=1;align=center;verticalAlign=middle;resizable=0;points=[];autosize=1;strokeColor=none;fillColor=none;" vertex="1" parent="1">
          <mxGeometry x="860" y="210" width="120" height="30" as="geometry" />
        </mxCell>
      </root>
    </mxGraphModel>
  </diagram>
  <diagram id="uvWwysHXRImljGjOt1hX" name="DIAGRAMA DE ACTVIDADES">
    <mxGraphModel dx="1780" dy="1404" grid="1" gridSize="10" guides="1" tooltips="1" connect="1" arrows="1" fold="1" page="1" pageScale="1" pageWidth="827" pageHeight="1169" math="0" shadow="0">
      <root>
        <mxCell id="0" />
        <mxCell id="1" parent="0" />
        <mxCell id="YPYp1lhYxCvcWvDYL5W9-1" value="Administrador de proyecto" style="swimlane;horizontal=0;whiteSpace=wrap;html=1;" parent="1" vertex="1">
          <mxGeometry x="930" y="120" width="1820" height="270" as="geometry" />
        </mxCell>
        <mxCell id="YPYp1lhYxCvcWvDYL5W9-2" value="" style="verticalLabelPosition=bottom;verticalAlign=top;html=1;shape=mxgraph.flowchart.on-page_reference;fillColor=#000000" parent="YPYp1lhYxCvcWvDYL5W9-1" vertex="1">
          <mxGeometry x="50" y="50" width="40" height="40" as="geometry" />
        </mxCell>
        <mxCell id="YPYp1lhYxCvcWvDYL5W9-3" value="Iniciar sesiÃ³n en el sistema SSAP" style="rounded=1;whiteSpace=wrap;html=1;arcSize=0;" parent="YPYp1lhYxCvcWvDYL5W9-1" vertex="1">
          <mxGeometry x="140" y="40" width="120" height="60" as="geometry" />
        </mxCell>
        <mxCell id="YPYp1lhYxCvcWvDYL5W9-4" value="" style="edgeStyle=orthogonalEdgeStyle;rounded=0;orthogonalLoop=1;jettySize=auto;html=1;" parent="YPYp1lhYxCvcWvDYL5W9-1" source="YPYp1lhYxCvcWvDYL5W9-2" target="YPYp1lhYxCvcWvDYL5W9-3" edge="1">
          <mxGeometry relative="1" as="geometry" />
        </mxCell>
        <mxCell id="YPYp1lhYxCvcWvDYL5W9-5" value="Ingresar datos solicitados" style="rounded=1;whiteSpace=wrap;html=1;arcSize=0;" parent="YPYp1lhYxCvcWvDYL5W9-1" vertex="1">
          <mxGeometry x="490" y="40" width="120" height="60" as="geometry" />
        </mxCell>
        <mxCell id="7qtSgZb_RUnTnzQGwKLB-5" style="edgeStyle=orthogonalEdgeStyle;rounded=0;orthogonalLoop=1;jettySize=auto;html=1;entryX=0;entryY=0.5;entryDx=0;entryDy=0;" parent="YPYp1lhYxCvcWvDYL5W9-1" source="YPYp1lhYxCvcWvDYL5W9-11" target="7qtSgZb_RUnTnzQGwKLB-1" edge="1">
          <mxGeometry relative="1" as="geometry" />
        </mxCell>
        <mxCell id="7qtSgZb_RUnTnzQGwKLB-7" value="No" style="edgeLabel;html=1;align=center;verticalAlign=middle;resizable=0;points=[];" parent="7qtSgZb_RUnTnzQGwKLB-5" vertex="1" connectable="0">
          <mxGeometry x="-0.5856" y="-1" relative="1" as="geometry">
            <mxPoint as="offset" />
          </mxGeometry>
        </mxCell>
        <mxCell id="YPYp1lhYxCvcWvDYL5W9-11" value="Â¿Hay miembros del equipo disponibles?" style="rhombus;whiteSpace=wrap;html=1;" parent="YPYp1lhYxCvcWvDYL5W9-1" vertex="1">
          <mxGeometry x="800" y="8.13" width="110" height="123.75" as="geometry" />
        </mxCell>
        <mxCell id="YPYp1lhYxCvcWvDYL5W9-22" value="Seleccionar la opcion &quot;Crear nuevo Proyecto&quot;" style="rounded=1;whiteSpace=wrap;html=1;arcSize=0;" parent="YPYp1lhYxCvcWvDYL5W9-1" vertex="1">
          <mxGeometry x="311" y="40" width="120" height="60" as="geometry" />
        </mxCell>
        <mxCell id="YPYp1lhYxCvcWvDYL5W9-21" value="" style="edgeStyle=orthogonalEdgeStyle;rounded=0;orthogonalLoop=1;jettySize=auto;html=1;entryX=0;entryY=0.5;entryDx=0;entryDy=0;" parent="YPYp1lhYxCvcWvDYL5W9-1" source="YPYp1lhYxCvcWvDYL5W9-22" target="YPYp1lhYxCvcWvDYL5W9-5" edge="1">
          <mxGeometry relative="1" as="geometry">
            <mxPoint x="510.9999999999998" y="110" as="targetPoint" />
          </mxGeometry>
        </mxCell>
        <mxCell id="YPYp1lhYxCvcWvDYL5W9-23" value="" style="edgeStyle=orthogonalEdgeStyle;rounded=0;orthogonalLoop=1;jettySize=auto;html=1;" parent="YPYp1lhYxCvcWvDYL5W9-1" source="YPYp1lhYxCvcWvDYL5W9-3" target="YPYp1lhYxCvcWvDYL5W9-22" edge="1">
          <mxGeometry relative="1" as="geometry" />
        </mxCell>
        <mxCell id="7qtSgZb_RUnTnzQGwKLB-10" value="" style="edgeStyle=orthogonalEdgeStyle;rounded=0;orthogonalLoop=1;jettySize=auto;html=1;" parent="YPYp1lhYxCvcWvDYL5W9-1" source="7qtSgZb_RUnTnzQGwKLB-1" target="7qtSgZb_RUnTnzQGwKLB-9" edge="1">
          <mxGeometry relative="1" as="geometry" />
        </mxCell>
        <mxCell id="7qtSgZb_RUnTnzQGwKLB-1" value="Establece Fechas limites e hitos principales" style="whiteSpace=wrap;html=1;" parent="YPYp1lhYxCvcWvDYL5W9-1" vertex="1">
          <mxGeometry x="1138" y="40" width="120" height="60" as="geometry" />
        </mxCell>
        <mxCell id="7qtSgZb_RUnTnzQGwKLB-9" value="Revisar y confrimar creacion de proyecto" style="whiteSpace=wrap;html=1;" parent="YPYp1lhYxCvcWvDYL5W9-1" vertex="1">
          <mxGeometry x="1338" y="40" width="120" height="60" as="geometry" />
        </mxCell>
        <mxCell id="YPYp1lhYxCvcWvDYL5W9-14" value="Asigna miembro de equipo al proyecto" style="whiteSpace=wrap;html=1;" parent="YPYp1lhYxCvcWvDYL5W9-1" vertex="1">
          <mxGeometry x="795" y="180" width="120" height="60" as="geometry" />
        </mxCell>
        <mxCell id="YPYp1lhYxCvcWvDYL5W9-9" value="" style="edgeStyle=orthogonalEdgeStyle;rounded=0;orthogonalLoop=1;jettySize=auto;html=1;" parent="YPYp1lhYxCvcWvDYL5W9-1" source="YPYp1lhYxCvcWvDYL5W9-11" target="YPYp1lhYxCvcWvDYL5W9-14" edge="1">
          <mxGeometry relative="1" as="geometry" />
        </mxCell>
        <mxCell id="YPYp1lhYxCvcWvDYL5W9-10" value="Si" style="edgeLabel;html=1;align=center;verticalAlign=middle;resizable=0;points=[];" parent="YPYp1lhYxCvcWvDYL5W9-9" vertex="1" connectable="0">
          <mxGeometry x="-0.1571" y="-2" relative="1" as="geometry">
            <mxPoint as="offset" />
          </mxGeometry>
        </mxCell>
        <mxCell id="YPYp1lhYxCvcWvDYL5W9-17" value="Miembro del equipo" style="swimlane;horizontal=0;whiteSpace=wrap;html=1;startSize=23;" parent="1" vertex="1">
          <mxGeometry x="930" y="390" width="1820" height="160" as="geometry" />
        </mxCell>
        <mxCell id="4bdtz-b2kYBV36TtXGpV-8" value="Obtiene usuarios disponibles" style="rounded=1;whiteSpace=wrap;html=1;arcSize=0;" vertex="1" parent="YPYp1lhYxCvcWvDYL5W9-17">
          <mxGeometry x="490" y="50" width="120" height="60" as="geometry" />
        </mxCell>
        <mxCell id="7qtSgZb_RUnTnzQGwKLB-3" style="edgeStyle=orthogonalEdgeStyle;rounded=0;orthogonalLoop=1;jettySize=auto;html=1;" parent="1" source="YPYp1lhYxCvcWvDYL5W9-14" target="YPYp1lhYxCvcWvDYL5W9-15" edge="1">
          <mxGeometry relative="1" as="geometry" />
        </mxCell>
        <mxCell id="7qtSgZb_RUnTnzQGwKLB-8" style="edgeStyle=orthogonalEdgeStyle;rounded=0;orthogonalLoop=1;jettySize=auto;html=1;" parent="1" source="YPYp1lhYxCvcWvDYL5W9-15" target="7qtSgZb_RUnTnzQGwKLB-1" edge="1">
          <mxGeometry relative="1" as="geometry" />
        </mxCell>
        <mxCell id="7qtSgZb_RUnTnzQGwKLB-12" value="" style="edgeStyle=orthogonalEdgeStyle;rounded=0;orthogonalLoop=1;jettySize=auto;html=1;" parent="1" source="7qtSgZb_RUnTnzQGwKLB-9" target="7qtSgZb_RUnTnzQGwKLB-11" edge="1">
          <mxGeometry relative="1" as="geometry" />
        </mxCell>
        <mxCell id="4bdtz-b2kYBV36TtXGpV-1" value="Notificacion" style="swimlane;horizontal=0;whiteSpace=wrap;html=1;startSize=23;" vertex="1" parent="1">
          <mxGeometry x="930" y="550" width="1820" height="160" as="geometry" />
        </mxCell>
        <mxCell id="YPYp1lhYxCvcWvDYL5W9-15" value="Envia notificacion de asignacion" style="whiteSpace=wrap;html=1;" parent="4bdtz-b2kYBV36TtXGpV-1" vertex="1">
          <mxGeometry x="795" y="50" width="120" height="60" as="geometry" />
        </mxCell>
        <mxCell id="4bdtz-b2kYBV36TtXGpV-10" style="edgeStyle=orthogonalEdgeStyle;rounded=0;orthogonalLoop=1;jettySize=auto;html=1;" edge="1" parent="1" source="YPYp1lhYxCvcWvDYL5W9-5" target="4bdtz-b2kYBV36TtXGpV-8">
          <mxGeometry relative="1" as="geometry" />
        </mxCell>
        <mxCell id="4bdtz-b2kYBV36TtXGpV-11" style="edgeStyle=orthogonalEdgeStyle;rounded=0;orthogonalLoop=1;jettySize=auto;html=1;entryX=0;entryY=0.5;entryDx=0;entryDy=0;" edge="1" parent="1" source="4bdtz-b2kYBV36TtXGpV-8" target="YPYp1lhYxCvcWvDYL5W9-11">
          <mxGeometry relative="1" as="geometry" />
        </mxCell>
        <mxCell id="4bdtz-b2kYBV36TtXGpV-12" value="Proyecto" style="swimlane;horizontal=0;whiteSpace=wrap;html=1;startSize=23;" vertex="1" parent="1">
          <mxGeometry x="930" y="710" width="1820" height="160" as="geometry" />
        </mxCell>
        <mxCell id="7qtSgZb_RUnTnzQGwKLB-11" value="Genera un identificador unico" style="whiteSpace=wrap;html=1;" parent="4bdtz-b2kYBV36TtXGpV-12" vertex="1">
          <mxGeometry x="1338" y="50" width="120" height="60" as="geometry" />
        </mxCell>
        <mxCell id="7qtSgZb_RUnTnzQGwKLB-13" value="Guarda en base de datos" style="whiteSpace=wrap;html=1;" parent="4bdtz-b2kYBV36TtXGpV-12" vertex="1">
          <mxGeometry x="1530" y="50" width="120" height="60" as="geometry" />
        </mxCell>
        <mxCell id="7qtSgZb_RUnTnzQGwKLB-14" value="" style="edgeStyle=orthogonalEdgeStyle;rounded=0;orthogonalLoop=1;jettySize=auto;html=1;" parent="4bdtz-b2kYBV36TtXGpV-12" source="7qtSgZb_RUnTnzQGwKLB-11" target="7qtSgZb_RUnTnzQGwKLB-13" edge="1">
          <mxGeometry relative="1" as="geometry" />
        </mxCell>
        <mxCell id="YPYp1lhYxCvcWvDYL5W9-20" value="" style="ellipse;html=1;shape=endState;fillColor=#000000;strokeColor=#ff0000;" parent="4bdtz-b2kYBV36TtXGpV-12" vertex="1">
          <mxGeometry x="1730" y="60" width="40" height="40" as="geometry" />
        </mxCell>
        <mxCell id="7qtSgZb_RUnTnzQGwKLB-15" style="edgeStyle=orthogonalEdgeStyle;rounded=0;orthogonalLoop=1;jettySize=auto;html=1;" parent="4bdtz-b2kYBV36TtXGpV-12" source="7qtSgZb_RUnTnzQGwKLB-13" target="YPYp1lhYxCvcWvDYL5W9-20" edge="1">
          <mxGeometry relative="1" as="geometry" />
        </mxCell>
      </root>
    </mxGraphModel>
  </diagram>
</mxfile>
